<!DOCTYPE svg PUBLIC "-//W3C//DTD SVG 1.1//EN" "http://www.w3.org/Graphics/SVG/1.1/DTD/svg11.dtd">
<!-- Uploaded to: SVG Repo, www.svgrepo.com, Transformed by: SVG Repo Mixer Tools -->
<svg height="800px" width="800px" version="1.1" id="Layer_1" xmlns="http://www.w3.org/2000/svg" xmlns:xlink="http://www.w3.org/1999/xlink" viewBox="0 0 392.63 392.63" xml:space="preserve" fill="#000000">
<g id="SVGRepo_bgCarrier" stroke-width="0"/>
<g id="SVGRepo_tracerCarrier" stroke-linecap="round" stroke-linejoin="round"/>
<g id="SVGRepo_iconCarrier"> <path style="fill:#FFFFFF;" d="M239.063,335.176l-52.881,13.964c-7.887,2.004-15.321-5.236-13.317-13.317l13.964-52.881 c0.453-1.875,1.487-3.556,2.844-4.913l73.244-73.115V100.251h-67.491c-6.012,0-10.925-4.848-10.925-10.925V21.835H21.851v348.897 h241.002V313.39l-18.941,18.941C242.618,333.689,240.937,334.659,239.063,335.176z"/> <g> <path style="fill:#579aff;" d="M353.422,152.808c-2.521-2.133-5.172-2.069-7.758,0L207.127,291.346l-8.404,31.806l31.806-8.404 L369.131,176.21c2.133-2.651,2.069-5.172,0-7.758L353.422,152.808z"/> <polygon style="fill:#579aff;" points="206.222,37.285 206.222,78.465 247.402,78.465 "/> </g> <path style="fill:#0061bd;" d="M384.582,153.132l-15.774-15.774c-10.02-9.762-26.57-11.572-38.529,0l-45.64,45.64V89.39 c0-2.844-1.164-5.624-3.168-7.758L203.055,3.281c-2.004-2.004-4.784-3.168-7.758-3.168H10.925C4.913,0.049,0,4.897,0,10.909v370.683 c0,6.012,4.848,10.925,10.925,10.925h262.788c6.012,0,10.925-4.848,10.925-10.925v-89.988l99.943-99.943 C395.313,180.477,395.313,163.863,384.582,153.132z M262.853,370.796H21.851V21.835h162.586V89.39 c0,6.012,4.848,10.925,10.925,10.925h67.556v104.533l-73.244,73.115c-1.422,1.422-2.327,3.103-2.844,4.978l-13.964,52.881 c-1.939,8.145,5.495,15.386,13.317,13.317l52.881-13.964c1.875-0.453,3.556-1.487,4.913-2.844l18.941-18.941v57.406H262.853z M206.222,37.285l41.18,41.18h-41.18V37.285z M369.196,176.21L230.659,314.877l-31.806,8.404l8.339-31.935l138.537-138.537 c2.521-2.069,5.107-2.133,7.758,0l15.774,15.774C371.265,171.039,371.329,173.625,369.196,176.21z"/> <path style="fill:#82caf7;" d="M181.786,43.685H43.636V349.01h136.792c-5.236-1.616-9.051-7.176-7.564-13.188l13.964-52.881 c0.453-1.875,1.487-3.556,2.844-4.978l51.394-51.394V102.966l-2.651-2.651h-43.119c-6.012,0-10.925-4.848-10.925-10.925V46.336 L181.786,43.685z"/> <g> <path style="fill:#0061bd;" d="M57.535,87.257h84.816c6.012,0,10.925-4.848,10.925-10.925c0-6.012-4.848-10.925-10.925-10.925 H57.535c-6.012,0-10.925,4.848-10.925,10.925C46.675,82.344,51.523,87.257,57.535,87.257z"/> <path style="fill:#0061bd;" d="M57.535,146.99h162.715c6.012,0,10.925-4.848,10.925-10.925c0-6.012-4.848-10.925-10.925-10.925 H57.535c-6.012,0-10.925,4.848-10.925,10.925C46.675,142.142,51.523,146.99,57.535,146.99z"/> <path style="fill:#0061bd;" d="M57.535,206.853h162.715c6.012,0,10.925-4.848,10.925-10.925s-4.848-10.925-10.925-10.925H57.535 c-6.012,0-10.925,4.848-10.925,10.925C46.675,201.94,51.523,206.853,57.535,206.853z"/> <path style="fill:#0061bd;" d="M142.416,244.736H57.535c-6.012,0-10.925,4.848-10.925,10.925c0,6.077,4.848,10.925,10.925,10.925 h84.816c6.012,0,10.925-4.848,10.925-10.925C153.277,249.584,148.364,244.736,142.416,244.736z"/> <path style="fill:#0061bd;" d="M142.416,304.598H57.535c-6.012,0-10.925,4.848-10.925,10.925c0,6.077,4.848,10.925,10.925,10.925 h84.816c6.012,0,10.925-4.848,10.925-10.925C153.277,309.447,148.364,304.598,142.416,304.598z"/> </g> </g>
</svg>